HIERARCHY
ROOT Hips
{
	OFFSET -0.001795 -0.223333 0.028219
	CHANNELS 6 Xposition Yposition Zposition Zrotation Yrotation Xrotation
	JOINT LeftUpLeg
	{
		OFFSET 0.069520 -0.091406 -0.006815
		CHANNELS 3 Zrotation Yrotation Xrotation
		JOINT LeftLeg
		{
			OFFSET 0.034277 -0.375199 -0.004496
			CHANNELS 3 Zrotation Yrotation Xrotation
			JOINT LeftFoot
			{
				OFFSET -0.013596 -0.397961 -0.043693
				CHANNELS 3 Zrotation Yrotation Xrotation
				JOINT LeftToe
				{
					OFFSET 0.026358 -0.055791 0.119288
					CHANNELS 3 Zrotation Yrotation Xrotation
					End Site
					{
						OFFSET 0.000000 0.000000 0.000000
					}
				}
			}
		}
	}
	JOINT RightUpLeg
	{
		OFFSET -0.067670 -0.090522 -0.004320
		CHANNELS 3 Zrotation Yrotation Xrotation
		JOINT RightLeg
		{
			OFFSET -0.038290 -0.382569 -0.008850
			CHANNELS 3 Zrotation Yrotation Xrotation
			JOINT RightFoot
			{
				OFFSET 0.015774 -0.398415 -0.042312
				CHANNELS 3 Zrotation Yrotation Xrotation
				JOINT RightToe
				{
					OFFSET -0.025372 -0.048144 0.123348
					CHANNELS 3 Zrotation Yrotation Xrotation
					End Site
					{
						OFFSET 0.000000 0.000000 0.000000
					}
				}
			}
		}
	}
	JOINT Spine
	{
		OFFSET -0.002533 0.108963 -0.026696
		CHANNELS 3 Zrotation Yrotation Xrotation
		JOINT Spine1
		{
			OFFSET 0.005487 0.135180 0.001092
			CHANNELS 3 Zrotation Yrotation Xrotation
			JOINT Spine2
			{
				OFFSET 0.001457 0.052922 0.025425
				CHANNELS 3 Zrotation Yrotation Xrotation
				JOINT Neck
				{
					OFFSET -0.002778 0.213870 -0.042857
					CHANNELS 3 Zrotation Yrotation Xrotation
					JOINT Head
					{
						OFFSET 0.005152 0.064970 0.051349
						CHANNELS 3 Zrotation Yrotation Xrotation
						End Site
						{
							OFFSET 0.000000 0.000000 0.000000
						}
					}
				}
				JOINT LeftShoulder
				{
					OFFSET 0.078845 0.121749 -0.034090
					CHANNELS 3 Zrotation Yrotation Xrotation
					JOINT LeftArm
					{
						OFFSET 0.090977 0.030469 -0.008868
						CHANNELS 3 Zrotation Yrotation Xrotation
						JOINT LeftForeArm
						{
							OFFSET 0.259612 -0.012772 -0.027456
							CHANNELS 3 Zrotation Yrotation Xrotation
							JOINT LeftHand
							{
								OFFSET 0.249234 0.008986 -0.001171
								CHANNELS 3 Zrotation Yrotation Xrotation
								End Site
								{
									OFFSET 0.000000 0.000000 0.000000
								}
							}
						}
					}
				}
				JOINT RightShoulder
				{
					OFFSET -0.081759 0.118833 -0.038615
					CHANNELS 3 Zrotation Yrotation Xrotation
					JOINT RightArm
					{
						OFFSET -0.096012 0.032551 -0.009143
						CHANNELS 3 Zrotation Yrotation Xrotation
						JOINT RightForeArm
						{
							OFFSET -0.253742 -0.013329 -0.021401
							CHANNELS 3 Zrotation Yrotation Xrotation
							JOINT RightHand
							{
								OFFSET -0.255298 0.007772 -0.005559
								CHANNELS 3 Zrotation Yrotation Xrotation
								End Site
								{
									OFFSET 0.000000 0.000000 0.000000
								}
							}
						}
					}
				}
			}
		}
	}
}
MOTION
Frames: 9
Frame Time: 0.050000
-0.093213 0.965582 -0.809184 -0.270787 3.617166 -3.246236 1.932187 0.015196 0.549486 -5.749667 0.650517 34.997131 3.121880 10.229035 13.049983 0.000000 0.000000 0.000000 4.099157 0.190244 -1.715325 -0.108430 0.252671 6.544414 2.664263 0.537342 12.425023 0.000000 0.000000 0.000000 -3.234163 -0.184449 11.304647 5.937473 -0.330190 -30.865451 -4.418438 -4.068646 33.517220 -1.707135 2.295393 -29.770706 0.000000 0.000000 0.000000 -32.284855 11.008076 -9.087315 -52.192263 -2.399768 -8.293227 -13.180824 -26.951296 4.990198 0.000000 0.000000 0.000000 18.463658 -0.285840 -1.381498 55.686707 5.341070 -6.268223 11.988354 26.234100 3.874818 0.000000 0.000000 0.000000
-0.091901 0.962950 -0.843229 -0.410723 3.475703 -2.762918 0.854530 0.383925 4.985941 -4.470382 0.181148 32.569057 1.238164 10.003749 24.197854 0.000000 0.000000 0.000000 4.185943 0.625595 -4.939205 -0.313060 0.302081 6.916787 2.655525 -0.097708 13.924635 0.000000 0.000000 0.000000 -3.043740 -0.176444 10.346687 6.199711 -0.465277 -29.534077 -4.910686 -4.935714 32.343641 -1.292581 1.882485 -29.175828 0.000000 0.000000 0.000000 -31.333116 10.133116 -7.921179 -53.448888 -3.528070 -7.956764 -12.690810 -28.731794 5.292287 0.000000 0.000000 0.000000 19.835847 -1.130196 -2.293615 55.275908 3.721926 -6.734376 11.355647 27.324344 3.837010 0.000000 0.000000 0.000000
-0.090167 0.957544 -0.879773 -0.856342 3.813510 -2.834879 0.525360 0.807313 10.276111 -2.889084 -0.293422 26.914363 -0.386972 8.207439 24.985851 0.000000 0.000000 0.000000 4.238607 0.961188 -7.386590 -0.023795 0.256140 7.160869 2.407323 -0.646185 14.310659 0.000000 0.000000 0.000000 -2.484375 -0.238713 10.609555 5.346928 -0.227588 -30.678123 -5.263709 -6.993852 33.385766 -1.157270 1.418664 -28.524527 0.000000 0.000000 0.000000 -31.184734 10.821863 -7.602355 -53.014269 -6.082783 -7.135227 -13.044571 -30.093183 5.855005 0.000000 0.000000 0.000000 19.849333 -0.872293 -2.633095 56.365217 3.201668 -7.133466 9.514889 27.082820 3.292591 0.000000 0.000000 0.000000
-0.087410 0.951241 -0.920284 -1.479013 5.772320 -2.598806 1.314375 0.917270 14.331509 -1.370130 -0.526390 18.413318 -0.867587 6.995282 21.535009 0.000000 0.000000 0.000000 3.959113 1.368855 -10.654994 0.655357 0.126850 7.774553 1.440881 -2.421966 15.320462 0.000000 0.000000 0.000000 -2.286412 -0.278581 10.736864 6.302499 -0.429865 -30.225753 -6.404407 -8.807616 32.801708 -1.571689 1.569144 -28.774667 0.000000 0.000000 0.000000 -31.174353 9.086636 -6.139134 -52.855247 -7.973852 -6.371111 -11.577673 -32.136490 5.887258 0.000000 0.000000 0.000000 20.538547 -1.874150 -3.472989 56.113988 1.591792 -7.692089 8.591538 28.931058 3.284376 0.000000 0.000000 0.000000
-0.083096 0.945363 -0.964572 -1.746276 6.768949 -3.134727 1.623160 0.949970 16.727067 -1.250732 -0.274593 11.699389 0.304563 8.159845 19.507040 0.000000 0.000000 0.000000 3.336311 1.554423 -12.670163 0.885726 0.060838 7.242156 1.130351 -3.338807 17.174325 0.000000 0.000000 0.000000 -2.782266 -0.288915 12.047530 6.621212 -0.478665 -30.420713 -6.133803 -9.950695 32.877965 -1.342095 1.318726 -28.531727 0.000000 0.000000 0.000000 -30.966878 8.189467 -5.270270 -52.225185 -10.745833 -5.224854 -12.518929 -32.727767 6.295315 0.000000 0.000000 0.000000 20.870221 -1.852571 -3.650532 56.202475 1.648978 -7.664285 7.054271 28.398092 2.824239 0.000000 0.000000 0.000000
-0.077692 0.943045 -1.010525 -1.665187 8.046504 -3.554044 1.343445 0.962782 17.361281 -1.074972 -0.126046 6.942174 -0.046795 6.314669 14.547981 0.000000 0.000000 0.000000 2.428603 1.683528 -14.935622 0.464074 0.119915 6.921551 0.975208 -4.246951 20.552621 0.000000 0.000000 0.000000 -3.613180 -0.266696 13.371545 6.709453 -0.527552 -30.008841 -5.390673 -11.012018 33.231079 -1.653735 1.498484 -30.335051 0.000000 0.000000 0.000000 -30.192525 7.204304 -4.341571 -52.341577 -12.897490 -4.370606 -12.345071 -34.579212 6.688647 0.000000 0.000000 0.000000 21.501259 -1.946927 -3.887075 55.883374 1.952562 -7.470928 6.078611 29.184848 2.661186 0.000000 0.000000 0.000000
-0.072472 0.945857 -1.053970 -1.514565 7.825316 -4.011113 0.544752 1.113676 17.336548 -1.639206 0.082696 3.024247 0.771582 7.113193 13.276136 0.000000 0.000000 0.000000 1.071486 1.698636 -17.043223 1.386060 -0.051753 6.693163 0.776249 -5.452181 23.985561 0.000000 0.000000 0.000000 -4.839228 -0.152406 14.046124 7.642548 -0.750638 -29.695977 -4.720054 -10.797220 33.518100 -2.773683 2.169091 -31.473091 0.000000 0.000000 0.000000 -30.354964 7.516506 -4.552838 -51.780171 -13.409336 -4.183679 -14.839830 -35.011202 7.616604 0.000000 0.000000 0.000000 20.790443 -1.879561 -3.702865 56.950307 2.363904 -7.496314 6.836038 29.182493 2.865971 0.000000 0.000000 0.000000
-0.068516 0.950427 -1.093113 -1.616261 8.176463 -4.424092 0.552892 1.053912 16.558510 -2.209971 0.186823 1.192621 0.165678 5.684731 11.720370 0.000000 0.000000 0.000000 0.294027 1.689472 -18.540976 2.116858 -0.187308 7.755305 -0.392983 -7.312733 24.806295 0.000000 0.000000 0.000000 -5.406055 -0.102966 13.927405 8.411149 -0.948775 -29.281745 -4.865826 -10.844979 33.867059 -3.588964 2.657512 -32.215069 0.000000 0.000000 0.000000 -29.364225 7.866732 -4.711898 -52.568287 -13.995247 -3.931796 -16.342738 -34.551861 8.034590 0.000000 0.000000 0.000000 19.648461 -1.213870 -3.075701 58.275138 2.079335 -7.901606 7.920830 29.583153 3.213361 0.000000 0.000000 0.000000
-0.066107 0.955620 -1.128784 -1.931018 8.450091 -5.147799 0.846961 0.961779 15.987523 -2.661671 0.241651 0.482623 -0.557860 3.767053 9.723257 0.000000 0.000000 0.000000 0.238750 1.698727 -18.895749 2.592368 -0.305984 11.635204 -2.003163 -9.231649 22.070026 0.000000 0.000000 0.000000 -5.360237 -0.130838 14.272663 8.781098 -1.043542 -29.150023 -4.729246 -10.381243 34.039956 -4.177054 3.099166 -32.988135 0.000000 0.000000 0.000000 -30.157178 7.389705 -4.678287 -52.271668 -13.273664 -4.263189 -16.173934 -34.373024 7.872483 0.000000 0.000000 0.000000 19.631563 -0.800862 -2.632817 58.650645 2.459807 -7.855036 7.621908 28.931270 3.128203 0.000000 0.000000 0.000000
